<mxfile host="Electron" agent="Mozilla/5.0 (Windows NT 10.0; Win64; x64) AppleWebKit/537.36 (KHTML, like Gecko) draw.io/24.7.17 Chrome/128.0.6613.36 Electron/32.0.1 Safari/537.36" version="24.7.17">
  <diagram id="R2lEEEUBdFMjLlhIrx00" name="Page-1">
    <mxGraphModel dx="1434" dy="836" grid="1" gridSize="10" guides="1" tooltips="1" connect="1" arrows="1" fold="1" page="1" pageScale="1" pageWidth="850" pageHeight="1100" math="0" shadow="0" extFonts="Permanent Marker^https://fonts.googleapis.com/css?family=Permanent+Marker">
      <root>
        <mxCell id="0" />
        <mxCell id="1" parent="0" />
        <mxCell id="x555_tb0VzsBlGV09o8V-25" style="edgeStyle=orthogonalEdgeStyle;rounded=0;orthogonalLoop=1;jettySize=auto;html=1;exitX=0.5;exitY=0;exitDx=0;exitDy=0;entryX=0.5;entryY=1;entryDx=0;entryDy=0;" edge="1" parent="1" source="x555_tb0VzsBlGV09o8V-1" target="x555_tb0VzsBlGV09o8V-17">
          <mxGeometry relative="1" as="geometry" />
        </mxCell>
        <mxCell id="x555_tb0VzsBlGV09o8V-1" value="AuditoriumEntity" style="rounded=0;whiteSpace=wrap;html=1;" vertex="1" parent="1">
          <mxGeometry x="520" y="400" width="120" height="60" as="geometry" />
        </mxCell>
        <mxCell id="x555_tb0VzsBlGV09o8V-27" style="edgeStyle=orthogonalEdgeStyle;rounded=0;orthogonalLoop=1;jettySize=auto;html=1;exitX=0.5;exitY=0;exitDx=0;exitDy=0;entryX=0.5;entryY=1;entryDx=0;entryDy=0;" edge="1" parent="1" source="x555_tb0VzsBlGV09o8V-2" target="x555_tb0VzsBlGV09o8V-11">
          <mxGeometry relative="1" as="geometry" />
        </mxCell>
        <mxCell id="x555_tb0VzsBlGV09o8V-2" value="&lt;div&gt;&lt;span style=&quot;background-color: initial;&quot;&gt;BookingEntity&lt;/span&gt;&lt;br&gt;&lt;/div&gt;" style="rounded=0;whiteSpace=wrap;html=1;" vertex="1" parent="1">
          <mxGeometry x="40" y="400" width="120" height="60" as="geometry" />
        </mxCell>
        <mxCell id="x555_tb0VzsBlGV09o8V-11" value="&lt;div&gt;&lt;span style=&quot;background-color: initial;&quot;&gt;CustomerEntity&lt;/span&gt;&lt;br&gt;&lt;/div&gt;" style="rounded=0;whiteSpace=wrap;html=1;" vertex="1" parent="1">
          <mxGeometry x="40" y="160" width="120" height="60" as="geometry" />
        </mxCell>
        <mxCell id="x555_tb0VzsBlGV09o8V-28" style="edgeStyle=orthogonalEdgeStyle;rounded=0;orthogonalLoop=1;jettySize=auto;html=1;exitX=0.5;exitY=1;exitDx=0;exitDy=0;startArrow=classic;startFill=1;" edge="1" parent="1" source="x555_tb0VzsBlGV09o8V-12" target="x555_tb0VzsBlGV09o8V-13">
          <mxGeometry relative="1" as="geometry" />
        </mxCell>
        <mxCell id="x555_tb0VzsBlGV09o8V-12" value="&lt;div&gt;&lt;span style=&quot;background-color: initial;&quot;&gt;GenreEntity&lt;/span&gt;&lt;br&gt;&lt;/div&gt;" style="rounded=0;whiteSpace=wrap;html=1;" vertex="1" parent="1">
          <mxGeometry x="280" y="160" width="120" height="60" as="geometry" />
        </mxCell>
        <mxCell id="x555_tb0VzsBlGV09o8V-13" value="&lt;div&gt;&lt;span style=&quot;background-color: initial;&quot;&gt;MovieEntity&lt;/span&gt;&lt;br&gt;&lt;/div&gt;" style="rounded=0;whiteSpace=wrap;html=1;" vertex="1" parent="1">
          <mxGeometry x="280" y="280" width="120" height="60" as="geometry" />
        </mxCell>
        <mxCell id="x555_tb0VzsBlGV09o8V-29" style="edgeStyle=orthogonalEdgeStyle;rounded=0;orthogonalLoop=1;jettySize=auto;html=1;exitX=0.5;exitY=0;exitDx=0;exitDy=0;entryX=0.5;entryY=1;entryDx=0;entryDy=0;" edge="1" parent="1" source="x555_tb0VzsBlGV09o8V-14" target="x555_tb0VzsBlGV09o8V-13">
          <mxGeometry relative="1" as="geometry" />
        </mxCell>
        <mxCell id="x555_tb0VzsBlGV09o8V-30" style="edgeStyle=orthogonalEdgeStyle;rounded=0;orthogonalLoop=1;jettySize=auto;html=1;exitX=1;exitY=0.5;exitDx=0;exitDy=0;entryX=0;entryY=0.5;entryDx=0;entryDy=0;" edge="1" parent="1" source="x555_tb0VzsBlGV09o8V-14" target="x555_tb0VzsBlGV09o8V-1">
          <mxGeometry relative="1" as="geometry" />
        </mxCell>
        <mxCell id="x555_tb0VzsBlGV09o8V-14" value="&lt;div&gt;&lt;span style=&quot;background-color: initial;&quot;&gt;ScreeningEntity&lt;/span&gt;&lt;br&gt;&lt;/div&gt;" style="rounded=0;whiteSpace=wrap;html=1;" vertex="1" parent="1">
          <mxGeometry x="280" y="400" width="120" height="60" as="geometry" />
        </mxCell>
        <mxCell id="x555_tb0VzsBlGV09o8V-24" style="edgeStyle=orthogonalEdgeStyle;rounded=0;orthogonalLoop=1;jettySize=auto;html=1;exitX=0.5;exitY=0;exitDx=0;exitDy=0;entryX=0.5;entryY=1;entryDx=0;entryDy=0;" edge="1" parent="1" source="x555_tb0VzsBlGV09o8V-15" target="x555_tb0VzsBlGV09o8V-18">
          <mxGeometry relative="1" as="geometry" />
        </mxCell>
        <mxCell id="x555_tb0VzsBlGV09o8V-15" value="&lt;div&gt;&lt;span style=&quot;background-color: initial;&quot;&gt;SeatEntity&lt;/span&gt;&lt;br&gt;&lt;/div&gt;" style="rounded=0;whiteSpace=wrap;html=1;" vertex="1" parent="1">
          <mxGeometry x="520" y="640" width="120" height="60" as="geometry" />
        </mxCell>
        <mxCell id="x555_tb0VzsBlGV09o8V-20" style="edgeStyle=orthogonalEdgeStyle;rounded=0;orthogonalLoop=1;jettySize=auto;html=1;exitX=1;exitY=0.5;exitDx=0;exitDy=0;entryX=0;entryY=0.5;entryDx=0;entryDy=0;" edge="1" parent="1" source="x555_tb0VzsBlGV09o8V-16" target="x555_tb0VzsBlGV09o8V-15">
          <mxGeometry relative="1" as="geometry" />
        </mxCell>
        <mxCell id="x555_tb0VzsBlGV09o8V-21" style="edgeStyle=orthogonalEdgeStyle;rounded=0;orthogonalLoop=1;jettySize=auto;html=1;exitX=1;exitY=0.25;exitDx=0;exitDy=0;entryX=0;entryY=0.5;entryDx=0;entryDy=0;" edge="1" parent="1" source="x555_tb0VzsBlGV09o8V-16" target="x555_tb0VzsBlGV09o8V-14">
          <mxGeometry relative="1" as="geometry">
            <Array as="points">
              <mxPoint x="220" y="655" />
              <mxPoint x="220" y="430" />
            </Array>
          </mxGeometry>
        </mxCell>
        <mxCell id="x555_tb0VzsBlGV09o8V-26" style="edgeStyle=orthogonalEdgeStyle;rounded=0;orthogonalLoop=1;jettySize=auto;html=1;exitX=0.5;exitY=0;exitDx=0;exitDy=0;entryX=0.5;entryY=1;entryDx=0;entryDy=0;" edge="1" parent="1" source="x555_tb0VzsBlGV09o8V-16" target="x555_tb0VzsBlGV09o8V-2">
          <mxGeometry relative="1" as="geometry" />
        </mxCell>
        <mxCell id="x555_tb0VzsBlGV09o8V-16" value="&lt;div&gt;&lt;span style=&quot;background-color: initial;&quot;&gt;SeatReservationEntity&lt;/span&gt;&lt;br&gt;&lt;/div&gt;" style="rounded=0;whiteSpace=wrap;html=1;" vertex="1" parent="1">
          <mxGeometry x="40" y="640" width="120" height="60" as="geometry" />
        </mxCell>
        <mxCell id="x555_tb0VzsBlGV09o8V-17" value="&lt;div&gt;&lt;span style=&quot;background-color: initial;&quot;&gt;TheaterEntity&lt;/span&gt;&lt;br&gt;&lt;/div&gt;" style="rounded=0;whiteSpace=wrap;html=1;" vertex="1" parent="1">
          <mxGeometry x="520" y="280" width="120" height="60" as="geometry" />
        </mxCell>
        <mxCell id="x555_tb0VzsBlGV09o8V-23" style="edgeStyle=orthogonalEdgeStyle;rounded=0;orthogonalLoop=1;jettySize=auto;html=1;exitX=0.5;exitY=0;exitDx=0;exitDy=0;entryX=0.5;entryY=1;entryDx=0;entryDy=0;" edge="1" parent="1" source="x555_tb0VzsBlGV09o8V-18" target="x555_tb0VzsBlGV09o8V-1">
          <mxGeometry relative="1" as="geometry" />
        </mxCell>
        <mxCell id="x555_tb0VzsBlGV09o8V-18" value="&lt;div&gt;&lt;span style=&quot;background-color: initial;&quot;&gt;TierEntity&lt;/span&gt;&lt;br&gt;&lt;/div&gt;" style="rounded=0;whiteSpace=wrap;html=1;" vertex="1" parent="1">
          <mxGeometry x="520" y="520" width="120" height="60" as="geometry" />
        </mxCell>
      </root>
    </mxGraphModel>
  </diagram>
</mxfile>
